<mxfile host="app.diagrams.net" agent="Mozilla/5.0 (Windows NT 10.0; Win64; x64) AppleWebKit/537.36 (KHTML, like Gecko) Chrome/132.0.0.0 Safari/537.36 Edg/132.0.0.0" version="28.2.0">
  <diagram name="第 1 页" id="5bU3_LqefhHjegDuP9pm">
    <mxGraphModel dx="1765" dy="1827" grid="1" gridSize="10" guides="1" tooltips="1" connect="1" arrows="1" fold="1" page="1" pageScale="1" pageWidth="827" pageHeight="1169" math="0" shadow="0">
      <root>
        <mxCell id="0" />
        <mxCell id="1" parent="0" />
        <mxCell id="b1SfIP7e31Zmd9BF9vlx-39" style="edgeStyle=orthogonalEdgeStyle;rounded=0;orthogonalLoop=1;jettySize=auto;html=1;fillColor=#f8cecc;strokeColor=#b85450;" edge="1" parent="1" source="b1SfIP7e31Zmd9BF9vlx-1" target="b1SfIP7e31Zmd9BF9vlx-4">
          <mxGeometry relative="1" as="geometry" />
        </mxCell>
        <mxCell id="b1SfIP7e31Zmd9BF9vlx-1" value="&lt;font style=&quot;font-size: 20px;&quot;&gt;ETL&lt;/font&gt;" style="ellipse;whiteSpace=wrap;html=1;" vertex="1" parent="1">
          <mxGeometry x="354" y="240" width="120" height="80" as="geometry" />
        </mxCell>
        <mxCell id="b1SfIP7e31Zmd9BF9vlx-2" value="&lt;font style=&quot;font-size: 20px;&quot;&gt;Load&lt;/font&gt;" style="ellipse;whiteSpace=wrap;html=1;fillColor=#dae8fc;strokeColor=#6c8ebf;" vertex="1" parent="1">
          <mxGeometry x="570" y="90" width="120" height="80" as="geometry" />
        </mxCell>
        <mxCell id="b1SfIP7e31Zmd9BF9vlx-3" value="&lt;font style=&quot;font-size: 20px;&quot;&gt;Extraction&lt;/font&gt;" style="ellipse;whiteSpace=wrap;html=1;fillColor=#d5e8d4;strokeColor=#82b366;" vertex="1" parent="1">
          <mxGeometry x="140" y="80" width="120" height="80" as="geometry" />
        </mxCell>
        <mxCell id="b1SfIP7e31Zmd9BF9vlx-4" value="&lt;font style=&quot;font-size: 20px;&quot;&gt;Transformation&lt;/font&gt;" style="ellipse;whiteSpace=wrap;html=1;fillColor=#f8cecc;strokeColor=#b85450;" vertex="1" parent="1">
          <mxGeometry x="329" y="585" width="170" height="80" as="geometry" />
        </mxCell>
        <mxCell id="b1SfIP7e31Zmd9BF9vlx-5" value="Pull&lt;div&gt;Extraction&lt;/div&gt;" style="rounded=0;whiteSpace=wrap;html=1;fillColor=#d5e8d4;strokeColor=#82b366;" vertex="1" parent="1">
          <mxGeometry x="20" y="-220" width="120" height="60" as="geometry" />
        </mxCell>
        <mxCell id="b1SfIP7e31Zmd9BF9vlx-7" value="" style="endArrow=classic;html=1;rounded=0;entryX=0.5;entryY=1;entryDx=0;entryDy=0;exitX=0;exitY=0;exitDx=0;exitDy=0;fillColor=#d5e8d4;strokeColor=#82b366;" edge="1" parent="1" source="b1SfIP7e31Zmd9BF9vlx-15" target="b1SfIP7e31Zmd9BF9vlx-5">
          <mxGeometry width="50" height="50" relative="1" as="geometry">
            <mxPoint x="464" y="41.039999999999964" as="sourcePoint" />
            <mxPoint x="363" y="-90" as="targetPoint" />
          </mxGeometry>
        </mxCell>
        <mxCell id="b1SfIP7e31Zmd9BF9vlx-8" value="Push&lt;div&gt;Extraction&lt;/div&gt;" style="rounded=0;whiteSpace=wrap;html=1;fillColor=#d5e8d4;strokeColor=#82b366;" vertex="1" parent="1">
          <mxGeometry x="290" y="-220" width="120" height="60" as="geometry" />
        </mxCell>
        <mxCell id="b1SfIP7e31Zmd9BF9vlx-13" value="" style="endArrow=classic;html=1;rounded=0;entryX=0.5;entryY=1;entryDx=0;entryDy=0;exitX=0.5;exitY=0;exitDx=0;exitDy=0;fillColor=#d5e8d4;strokeColor=#82b366;" edge="1" parent="1" source="b1SfIP7e31Zmd9BF9vlx-3" target="b1SfIP7e31Zmd9BF9vlx-15">
          <mxGeometry width="50" height="50" relative="1" as="geometry">
            <mxPoint x="241" y="141" as="sourcePoint" />
            <mxPoint x="140" y="10" as="targetPoint" />
          </mxGeometry>
        </mxCell>
        <mxCell id="b1SfIP7e31Zmd9BF9vlx-14" value="" style="endArrow=classic;html=1;rounded=0;exitX=0;exitY=0;exitDx=0;exitDy=0;fillColor=#d5e8d4;strokeColor=#82b366;" edge="1" parent="1" source="b1SfIP7e31Zmd9BF9vlx-1" target="b1SfIP7e31Zmd9BF9vlx-3">
          <mxGeometry width="50" height="50" relative="1" as="geometry">
            <mxPoint x="280" y="180" as="sourcePoint" />
            <mxPoint x="380" y="50" as="targetPoint" />
          </mxGeometry>
        </mxCell>
        <mxCell id="b1SfIP7e31Zmd9BF9vlx-15" value="&lt;div&gt;Extraction&lt;/div&gt;&lt;div&gt;methods&lt;/div&gt;" style="rounded=0;whiteSpace=wrap;html=1;fillColor=#d5e8d4;strokeColor=#82b366;" vertex="1" parent="1">
          <mxGeometry x="140" y="-80" width="120" height="60" as="geometry" />
        </mxCell>
        <mxCell id="b1SfIP7e31Zmd9BF9vlx-16" value="" style="endArrow=classic;html=1;rounded=0;entryX=0.342;entryY=1.05;entryDx=0;entryDy=0;exitX=1;exitY=0;exitDx=0;exitDy=0;entryPerimeter=0;fillColor=#d5e8d4;strokeColor=#82b366;" edge="1" parent="1" source="b1SfIP7e31Zmd9BF9vlx-15" target="b1SfIP7e31Zmd9BF9vlx-8">
          <mxGeometry width="50" height="50" relative="1" as="geometry">
            <mxPoint x="230" y="-40" as="sourcePoint" />
            <mxPoint x="170" y="-120" as="targetPoint" />
          </mxGeometry>
        </mxCell>
        <mxCell id="b1SfIP7e31Zmd9BF9vlx-17" value="&lt;div&gt;Extraction&lt;/div&gt;&lt;div&gt;Types&lt;/div&gt;" style="rounded=0;whiteSpace=wrap;html=1;fillColor=#d5e8d4;strokeColor=#82b366;" vertex="1" parent="1">
          <mxGeometry x="-90" y="-100" width="120" height="60" as="geometry" />
        </mxCell>
        <mxCell id="b1SfIP7e31Zmd9BF9vlx-18" value="" style="endArrow=classic;html=1;rounded=0;entryX=1;entryY=1;entryDx=0;entryDy=0;exitX=0.042;exitY=0.275;exitDx=0;exitDy=0;exitPerimeter=0;fillColor=#d5e8d4;strokeColor=#82b366;" edge="1" parent="1" source="b1SfIP7e31Zmd9BF9vlx-3" target="b1SfIP7e31Zmd9BF9vlx-17">
          <mxGeometry width="50" height="50" relative="1" as="geometry">
            <mxPoint x="140" y="90" as="sourcePoint" />
            <mxPoint x="210" y="20" as="targetPoint" />
          </mxGeometry>
        </mxCell>
        <mxCell id="b1SfIP7e31Zmd9BF9vlx-19" value="Full&lt;div&gt;Extraction&lt;/div&gt;" style="rounded=0;whiteSpace=wrap;html=1;fillColor=#d5e8d4;strokeColor=#82b366;" vertex="1" parent="1">
          <mxGeometry x="-270" y="-210" width="120" height="60" as="geometry" />
        </mxCell>
        <mxCell id="b1SfIP7e31Zmd9BF9vlx-20" value="&lt;div&gt;&lt;span style=&quot;background-color: transparent; color: light-dark(rgb(0, 0, 0), rgb(255, 255, 255));&quot;&gt;Incremental&lt;/span&gt;&lt;/div&gt;&lt;div&gt;&lt;span style=&quot;background-color: transparent; color: light-dark(rgb(0, 0, 0), rgb(255, 255, 255));&quot;&gt;Extraction&lt;/span&gt;&lt;/div&gt;" style="rounded=0;whiteSpace=wrap;html=1;fillColor=#d5e8d4;strokeColor=#82b366;" vertex="1" parent="1">
          <mxGeometry x="-280" y="-20" width="120" height="60" as="geometry" />
        </mxCell>
        <mxCell id="b1SfIP7e31Zmd9BF9vlx-21" value="" style="endArrow=classic;html=1;rounded=0;entryX=0.908;entryY=0.983;entryDx=0;entryDy=0;exitX=0;exitY=0;exitDx=0;exitDy=0;entryPerimeter=0;fillColor=#d5e8d4;strokeColor=#82b366;" edge="1" parent="1" source="b1SfIP7e31Zmd9BF9vlx-17" target="b1SfIP7e31Zmd9BF9vlx-19">
          <mxGeometry width="50" height="50" relative="1" as="geometry">
            <mxPoint x="160" y="-50" as="sourcePoint" />
            <mxPoint x="100" y="-130" as="targetPoint" />
          </mxGeometry>
        </mxCell>
        <mxCell id="b1SfIP7e31Zmd9BF9vlx-22" value="" style="endArrow=classic;html=1;rounded=0;entryX=1;entryY=0;entryDx=0;entryDy=0;exitX=0;exitY=1;exitDx=0;exitDy=0;fillColor=#d5e8d4;strokeColor=#82b366;" edge="1" parent="1" source="b1SfIP7e31Zmd9BF9vlx-17" target="b1SfIP7e31Zmd9BF9vlx-20">
          <mxGeometry width="50" height="50" relative="1" as="geometry">
            <mxPoint x="-89" y="1" as="sourcePoint" />
            <mxPoint x="-200" y="-90" as="targetPoint" />
          </mxGeometry>
        </mxCell>
        <mxCell id="b1SfIP7e31Zmd9BF9vlx-23" value="&lt;div&gt;Extraction&lt;/div&gt;&lt;div&gt;Techniques&lt;/div&gt;" style="rounded=0;whiteSpace=wrap;html=1;fillColor=#d5e8d4;strokeColor=#82b366;" vertex="1" parent="1">
          <mxGeometry x="-120" y="220" width="120" height="60" as="geometry" />
        </mxCell>
        <mxCell id="b1SfIP7e31Zmd9BF9vlx-24" value="" style="endArrow=classic;html=1;rounded=0;entryX=0.992;entryY=0.133;entryDx=0;entryDy=0;entryPerimeter=0;fillColor=#d5e8d4;strokeColor=#82b366;" edge="1" parent="1" source="b1SfIP7e31Zmd9BF9vlx-3" target="b1SfIP7e31Zmd9BF9vlx-23">
          <mxGeometry width="50" height="50" relative="1" as="geometry">
            <mxPoint x="245" y="142" as="sourcePoint" />
            <mxPoint x="100" y="80" as="targetPoint" />
          </mxGeometry>
        </mxCell>
        <mxCell id="b1SfIP7e31Zmd9BF9vlx-25" value="&lt;div&gt;Manual Data Extraction&lt;/div&gt;" style="rounded=0;whiteSpace=wrap;html=1;fillColor=#d5e8d4;strokeColor=#82b366;" vertex="1" parent="1">
          <mxGeometry x="-310" y="80" width="120" height="60" as="geometry" />
        </mxCell>
        <mxCell id="b1SfIP7e31Zmd9BF9vlx-26" value="&lt;div&gt;Database Querying&lt;/div&gt;" style="rounded=0;whiteSpace=wrap;html=1;fillColor=#d5e8d4;strokeColor=#82b366;" vertex="1" parent="1">
          <mxGeometry x="-340" y="180" width="120" height="60" as="geometry" />
        </mxCell>
        <mxCell id="b1SfIP7e31Zmd9BF9vlx-27" value="&lt;div&gt;File Parsing&lt;/div&gt;" style="rounded=0;whiteSpace=wrap;html=1;fillColor=#d5e8d4;strokeColor=#82b366;" vertex="1" parent="1">
          <mxGeometry x="-360" y="280" width="120" height="60" as="geometry" />
        </mxCell>
        <mxCell id="b1SfIP7e31Zmd9BF9vlx-28" value="&lt;div&gt;API Calls&lt;/div&gt;" style="rounded=0;whiteSpace=wrap;html=1;fillColor=#d5e8d4;strokeColor=#82b366;" vertex="1" parent="1">
          <mxGeometry x="-300" y="370" width="120" height="60" as="geometry" />
        </mxCell>
        <mxCell id="b1SfIP7e31Zmd9BF9vlx-29" value="&lt;div&gt;Event Based Streaming&lt;/div&gt;" style="rounded=0;whiteSpace=wrap;html=1;fillColor=#d5e8d4;strokeColor=#82b366;" vertex="1" parent="1">
          <mxGeometry x="-190" y="460" width="120" height="60" as="geometry" />
        </mxCell>
        <mxCell id="b1SfIP7e31Zmd9BF9vlx-30" value="&lt;div&gt;CDC&lt;/div&gt;" style="rounded=0;whiteSpace=wrap;html=1;fillColor=#d5e8d4;strokeColor=#82b366;" vertex="1" parent="1">
          <mxGeometry x="-30" y="420" width="120" height="60" as="geometry" />
        </mxCell>
        <mxCell id="b1SfIP7e31Zmd9BF9vlx-31" value="Web scaping" style="rounded=0;whiteSpace=wrap;html=1;fillColor=#d5e8d4;strokeColor=#82b366;" vertex="1" parent="1">
          <mxGeometry x="40" y="340" width="120" height="60" as="geometry" />
        </mxCell>
        <mxCell id="b1SfIP7e31Zmd9BF9vlx-32" value="" style="endArrow=classic;html=1;rounded=0;entryX=1;entryY=0.5;entryDx=0;entryDy=0;exitX=0.5;exitY=0;exitDx=0;exitDy=0;fillColor=#d5e8d4;strokeColor=#82b366;" edge="1" parent="1" source="b1SfIP7e31Zmd9BF9vlx-23" target="b1SfIP7e31Zmd9BF9vlx-25">
          <mxGeometry width="50" height="50" relative="1" as="geometry">
            <mxPoint x="-30" y="-30" as="sourcePoint" />
            <mxPoint x="-100" y="-10" as="targetPoint" />
          </mxGeometry>
        </mxCell>
        <mxCell id="b1SfIP7e31Zmd9BF9vlx-33" value="" style="endArrow=classic;html=1;rounded=0;entryX=1;entryY=0.5;entryDx=0;entryDy=0;exitX=-0.017;exitY=0.133;exitDx=0;exitDy=0;exitPerimeter=0;fillColor=#d5e8d4;strokeColor=#82b366;" edge="1" parent="1" source="b1SfIP7e31Zmd9BF9vlx-23" target="b1SfIP7e31Zmd9BF9vlx-26">
          <mxGeometry width="50" height="50" relative="1" as="geometry">
            <mxPoint x="30" y="300" as="sourcePoint" />
            <mxPoint x="-100" y="190" as="targetPoint" />
          </mxGeometry>
        </mxCell>
        <mxCell id="b1SfIP7e31Zmd9BF9vlx-34" value="" style="endArrow=classic;html=1;rounded=0;exitX=0.017;exitY=0.867;exitDx=0;exitDy=0;exitPerimeter=0;fillColor=#d5e8d4;strokeColor=#82b366;" edge="1" parent="1" source="b1SfIP7e31Zmd9BF9vlx-23" target="b1SfIP7e31Zmd9BF9vlx-27">
          <mxGeometry width="50" height="50" relative="1" as="geometry">
            <mxPoint x="-130" y="270" as="sourcePoint" />
            <mxPoint x="-110" y="290" as="targetPoint" />
          </mxGeometry>
        </mxCell>
        <mxCell id="b1SfIP7e31Zmd9BF9vlx-35" value="" style="endArrow=classic;html=1;rounded=0;exitX=0.25;exitY=1;exitDx=0;exitDy=0;fillColor=#d5e8d4;strokeColor=#82b366;" edge="1" parent="1" source="b1SfIP7e31Zmd9BF9vlx-23" target="b1SfIP7e31Zmd9BF9vlx-28">
          <mxGeometry width="50" height="50" relative="1" as="geometry">
            <mxPoint x="-60" y="290" as="sourcePoint" />
            <mxPoint x="-170" y="316" as="targetPoint" />
          </mxGeometry>
        </mxCell>
        <mxCell id="b1SfIP7e31Zmd9BF9vlx-36" value="" style="endArrow=classic;html=1;rounded=0;exitX=0.5;exitY=1;exitDx=0;exitDy=0;entryX=0.5;entryY=0;entryDx=0;entryDy=0;fillColor=#d5e8d4;strokeColor=#82b366;" edge="1" parent="1" source="b1SfIP7e31Zmd9BF9vlx-23" target="b1SfIP7e31Zmd9BF9vlx-29">
          <mxGeometry width="50" height="50" relative="1" as="geometry">
            <mxPoint x="42" y="320" as="sourcePoint" />
            <mxPoint x="-70" y="410" as="targetPoint" />
          </mxGeometry>
        </mxCell>
        <mxCell id="b1SfIP7e31Zmd9BF9vlx-37" value="" style="endArrow=classic;html=1;rounded=0;exitX=0.675;exitY=1;exitDx=0;exitDy=0;exitPerimeter=0;entryX=0.083;entryY=0.033;entryDx=0;entryDy=0;entryPerimeter=0;fillColor=#d5e8d4;strokeColor=#82b366;" edge="1" parent="1" source="b1SfIP7e31Zmd9BF9vlx-23" target="b1SfIP7e31Zmd9BF9vlx-30">
          <mxGeometry width="50" height="50" relative="1" as="geometry">
            <mxPoint x="73" y="310" as="sourcePoint" />
            <mxPoint x="-30" y="410" as="targetPoint" />
          </mxGeometry>
        </mxCell>
        <mxCell id="b1SfIP7e31Zmd9BF9vlx-38" value="" style="endArrow=classic;html=1;rounded=0;exitX=1;exitY=1;exitDx=0;exitDy=0;entryX=0;entryY=0.25;entryDx=0;entryDy=0;fillColor=#d5e8d4;strokeColor=#82b366;" edge="1" parent="1" source="b1SfIP7e31Zmd9BF9vlx-23" target="b1SfIP7e31Zmd9BF9vlx-31">
          <mxGeometry width="50" height="50" relative="1" as="geometry">
            <mxPoint y="370" as="sourcePoint" />
            <mxPoint x="21" y="497" as="targetPoint" />
          </mxGeometry>
        </mxCell>
        <mxCell id="b1SfIP7e31Zmd9BF9vlx-41" value="" style="endArrow=classic;html=1;rounded=0;entryX=0.275;entryY=0.95;entryDx=0;entryDy=0;entryPerimeter=0;fillColor=#dae8fc;strokeColor=#6c8ebf;" edge="1" parent="1" source="b1SfIP7e31Zmd9BF9vlx-1" target="b1SfIP7e31Zmd9BF9vlx-2">
          <mxGeometry width="50" height="50" relative="1" as="geometry">
            <mxPoint x="483" y="332" as="sourcePoint" />
            <mxPoint x="350" y="230" as="targetPoint" />
          </mxGeometry>
        </mxCell>
        <mxCell id="b1SfIP7e31Zmd9BF9vlx-42" value="Data Enrichment" style="rounded=0;whiteSpace=wrap;html=1;fillColor=#f8cecc;strokeColor=#b85450;" vertex="1" parent="1">
          <mxGeometry x="160" y="470" width="120" height="60" as="geometry" />
        </mxCell>
        <mxCell id="b1SfIP7e31Zmd9BF9vlx-43" value="Data Integration" style="rounded=0;whiteSpace=wrap;html=1;fillColor=#f8cecc;strokeColor=#b85450;" vertex="1" parent="1">
          <mxGeometry x="40" y="595" width="120" height="60" as="geometry" />
        </mxCell>
        <mxCell id="b1SfIP7e31Zmd9BF9vlx-44" value="Derived Colums" style="rounded=0;whiteSpace=wrap;html=1;fillColor=#f8cecc;strokeColor=#b85450;" vertex="1" parent="1">
          <mxGeometry x="150" y="710" width="120" height="60" as="geometry" />
        </mxCell>
        <mxCell id="b1SfIP7e31Zmd9BF9vlx-45" value="Data Normalization &amp;amp; Standardiaztion" style="rounded=0;whiteSpace=wrap;html=1;fillColor=#f8cecc;strokeColor=#b85450;" vertex="1" parent="1">
          <mxGeometry x="550" y="470" width="120" height="60" as="geometry" />
        </mxCell>
        <mxCell id="b1SfIP7e31Zmd9BF9vlx-46" value="Business Rules &amp;amp; Logic" style="rounded=0;whiteSpace=wrap;html=1;fillColor=#f8cecc;strokeColor=#b85450;" vertex="1" parent="1">
          <mxGeometry x="620" y="590" width="120" height="60" as="geometry" />
        </mxCell>
        <mxCell id="b1SfIP7e31Zmd9BF9vlx-47" value="Data Aggregations" style="rounded=0;whiteSpace=wrap;html=1;fillColor=#f8cecc;strokeColor=#b85450;" vertex="1" parent="1">
          <mxGeometry x="580" y="710" width="120" height="60" as="geometry" />
        </mxCell>
        <mxCell id="b1SfIP7e31Zmd9BF9vlx-49" value="" style="endArrow=classic;html=1;rounded=0;entryX=1;entryY=1;entryDx=0;entryDy=0;exitX=0;exitY=0;exitDx=0;exitDy=0;fillColor=#f8cecc;strokeColor=#b85450;" edge="1" parent="1" source="b1SfIP7e31Zmd9BF9vlx-4" target="b1SfIP7e31Zmd9BF9vlx-42">
          <mxGeometry width="50" height="50" relative="1" as="geometry">
            <mxPoint x="360" y="590" as="sourcePoint" />
            <mxPoint x="340" y="540" as="targetPoint" />
          </mxGeometry>
        </mxCell>
        <mxCell id="b1SfIP7e31Zmd9BF9vlx-50" value="" style="endArrow=classic;html=1;rounded=0;exitX=0;exitY=0.5;exitDx=0;exitDy=0;fillColor=#f8cecc;strokeColor=#b85450;" edge="1" parent="1" source="b1SfIP7e31Zmd9BF9vlx-4" target="b1SfIP7e31Zmd9BF9vlx-43">
          <mxGeometry width="50" height="50" relative="1" as="geometry">
            <mxPoint x="434" y="606" as="sourcePoint" />
            <mxPoint x="350" y="540" as="targetPoint" />
          </mxGeometry>
        </mxCell>
        <mxCell id="b1SfIP7e31Zmd9BF9vlx-51" value="" style="endArrow=classic;html=1;rounded=0;exitX=0;exitY=1;exitDx=0;exitDy=0;fillColor=#f8cecc;strokeColor=#b85450;" edge="1" parent="1" source="b1SfIP7e31Zmd9BF9vlx-4" target="b1SfIP7e31Zmd9BF9vlx-44">
          <mxGeometry width="50" height="50" relative="1" as="geometry">
            <mxPoint x="469" y="707" as="sourcePoint" />
            <mxPoint x="330" y="690" as="targetPoint" />
          </mxGeometry>
        </mxCell>
        <mxCell id="b1SfIP7e31Zmd9BF9vlx-52" value="" style="endArrow=classic;html=1;rounded=0;entryX=0;entryY=1;entryDx=0;entryDy=0;fillColor=#f8cecc;strokeColor=#b85450;" edge="1" parent="1" source="b1SfIP7e31Zmd9BF9vlx-4" target="b1SfIP7e31Zmd9BF9vlx-45">
          <mxGeometry width="50" height="50" relative="1" as="geometry">
            <mxPoint x="480" y="590" as="sourcePoint" />
            <mxPoint x="340" y="570" as="targetPoint" />
          </mxGeometry>
        </mxCell>
        <mxCell id="b1SfIP7e31Zmd9BF9vlx-53" value="" style="endArrow=classic;html=1;rounded=0;entryX=0;entryY=0.5;entryDx=0;entryDy=0;fillColor=#f8cecc;strokeColor=#b85450;" edge="1" parent="1" target="b1SfIP7e31Zmd9BF9vlx-46">
          <mxGeometry width="50" height="50" relative="1" as="geometry">
            <mxPoint x="500" y="620" as="sourcePoint" />
            <mxPoint x="300" y="620" as="targetPoint" />
          </mxGeometry>
        </mxCell>
        <mxCell id="b1SfIP7e31Zmd9BF9vlx-54" value="" style="endArrow=classic;html=1;rounded=0;exitX=1;exitY=1;exitDx=0;exitDy=0;fillColor=#f8cecc;strokeColor=#b85450;" edge="1" parent="1" source="b1SfIP7e31Zmd9BF9vlx-4" target="b1SfIP7e31Zmd9BF9vlx-47">
          <mxGeometry width="50" height="50" relative="1" as="geometry">
            <mxPoint x="550" y="640" as="sourcePoint" />
            <mxPoint x="670" y="640" as="targetPoint" />
          </mxGeometry>
        </mxCell>
        <mxCell id="b1SfIP7e31Zmd9BF9vlx-55" value="Data Cleansing" style="rounded=0;whiteSpace=wrap;html=1;fillColor=#f8cecc;strokeColor=#b85450;" vertex="1" parent="1">
          <mxGeometry x="354" y="950" width="120" height="60" as="geometry" />
        </mxCell>
        <mxCell id="b1SfIP7e31Zmd9BF9vlx-56" value="" style="endArrow=classic;html=1;rounded=0;exitX=0.5;exitY=1;exitDx=0;exitDy=0;entryX=0.5;entryY=0;entryDx=0;entryDy=0;fillColor=#f8cecc;strokeColor=#b85450;" edge="1" parent="1" source="b1SfIP7e31Zmd9BF9vlx-4" target="b1SfIP7e31Zmd9BF9vlx-55">
          <mxGeometry width="50" height="50" relative="1" as="geometry">
            <mxPoint x="530" y="680" as="sourcePoint" />
            <mxPoint x="639" y="737" as="targetPoint" />
          </mxGeometry>
        </mxCell>
        <mxCell id="b1SfIP7e31Zmd9BF9vlx-57" value="Handling Invalid Values" style="rounded=0;whiteSpace=wrap;html=1;fillColor=#f8cecc;strokeColor=#b85450;" vertex="1" parent="1">
          <mxGeometry x="354" y="1110" width="120" height="60" as="geometry" />
        </mxCell>
        <mxCell id="b1SfIP7e31Zmd9BF9vlx-58" value="Remove Duplicates" style="rounded=0;whiteSpace=wrap;html=1;fillColor=#f8cecc;strokeColor=#b85450;" vertex="1" parent="1">
          <mxGeometry x="150" y="820" width="120" height="60" as="geometry" />
        </mxCell>
        <mxCell id="b1SfIP7e31Zmd9BF9vlx-59" value="Data Filtering" style="rounded=0;whiteSpace=wrap;html=1;fillColor=#f8cecc;strokeColor=#b85450;" vertex="1" parent="1">
          <mxGeometry x="110" y="930" width="120" height="60" as="geometry" />
        </mxCell>
        <mxCell id="b1SfIP7e31Zmd9BF9vlx-60" value="Handling Missing Data" style="rounded=0;whiteSpace=wrap;html=1;fillColor=#f8cecc;strokeColor=#b85450;" vertex="1" parent="1">
          <mxGeometry x="150" y="1050" width="120" height="60" as="geometry" />
        </mxCell>
        <mxCell id="b1SfIP7e31Zmd9BF9vlx-61" value="Handling Unwanted Spaces" style="rounded=0;whiteSpace=wrap;html=1;fillColor=#f8cecc;strokeColor=#b85450;" vertex="1" parent="1">
          <mxGeometry x="560" y="1060" width="120" height="60" as="geometry" />
        </mxCell>
        <mxCell id="b1SfIP7e31Zmd9BF9vlx-62" value="Outlier detection" style="rounded=0;whiteSpace=wrap;html=1;fillColor=#f8cecc;strokeColor=#b85450;" vertex="1" parent="1">
          <mxGeometry x="570" y="820" width="120" height="60" as="geometry" />
        </mxCell>
        <mxCell id="b1SfIP7e31Zmd9BF9vlx-63" value="Data&amp;nbsp; Type Casting" style="rounded=0;whiteSpace=wrap;html=1;fillColor=#f8cecc;strokeColor=#b85450;" vertex="1" parent="1">
          <mxGeometry x="580" y="930" width="120" height="60" as="geometry" />
        </mxCell>
        <mxCell id="b1SfIP7e31Zmd9BF9vlx-64" value="" style="endArrow=classic;html=1;rounded=0;exitX=0;exitY=0;exitDx=0;exitDy=0;entryX=0.983;entryY=0.633;entryDx=0;entryDy=0;entryPerimeter=0;fillColor=#f8cecc;strokeColor=#b85450;" edge="1" parent="1" source="b1SfIP7e31Zmd9BF9vlx-55" target="b1SfIP7e31Zmd9BF9vlx-58">
          <mxGeometry width="50" height="50" relative="1" as="geometry">
            <mxPoint x="444" y="640" as="sourcePoint" />
            <mxPoint x="350" y="697" as="targetPoint" />
          </mxGeometry>
        </mxCell>
        <mxCell id="b1SfIP7e31Zmd9BF9vlx-65" value="" style="endArrow=classic;html=1;rounded=0;entryX=1;entryY=0.5;entryDx=0;entryDy=0;fillColor=#f8cecc;strokeColor=#b85450;" edge="1" parent="1" source="b1SfIP7e31Zmd9BF9vlx-55" target="b1SfIP7e31Zmd9BF9vlx-59">
          <mxGeometry width="50" height="50" relative="1" as="geometry">
            <mxPoint x="350" y="980" as="sourcePoint" />
            <mxPoint x="350" y="870" as="targetPoint" />
          </mxGeometry>
        </mxCell>
        <mxCell id="b1SfIP7e31Zmd9BF9vlx-66" value="" style="endArrow=classic;html=1;rounded=0;entryX=0.9;entryY=0.033;entryDx=0;entryDy=0;entryPerimeter=0;exitX=0;exitY=1;exitDx=0;exitDy=0;fillColor=#f8cecc;strokeColor=#b85450;" edge="1" parent="1" source="b1SfIP7e31Zmd9BF9vlx-55" target="b1SfIP7e31Zmd9BF9vlx-60">
          <mxGeometry width="50" height="50" relative="1" as="geometry">
            <mxPoint x="490" y="1010" as="sourcePoint" />
            <mxPoint x="370" y="990" as="targetPoint" />
          </mxGeometry>
        </mxCell>
        <mxCell id="b1SfIP7e31Zmd9BF9vlx-67" value="" style="endArrow=classic;html=1;rounded=0;entryX=0.5;entryY=0;entryDx=0;entryDy=0;exitX=0.5;exitY=1;exitDx=0;exitDy=0;fillColor=#f8cecc;strokeColor=#b85450;" edge="1" parent="1" source="b1SfIP7e31Zmd9BF9vlx-55" target="b1SfIP7e31Zmd9BF9vlx-57">
          <mxGeometry width="50" height="50" relative="1" as="geometry">
            <mxPoint x="466" y="1010" as="sourcePoint" />
            <mxPoint x="370" y="1082" as="targetPoint" />
          </mxGeometry>
        </mxCell>
        <mxCell id="b1SfIP7e31Zmd9BF9vlx-68" value="" style="endArrow=classic;html=1;rounded=0;entryX=0;entryY=0.5;entryDx=0;entryDy=0;exitX=1;exitY=0;exitDx=0;exitDy=0;fillColor=#f8cecc;strokeColor=#b85450;" edge="1" parent="1" source="b1SfIP7e31Zmd9BF9vlx-55" target="b1SfIP7e31Zmd9BF9vlx-62">
          <mxGeometry width="50" height="50" relative="1" as="geometry">
            <mxPoint x="460" y="1030" as="sourcePoint" />
            <mxPoint x="460" y="1130" as="targetPoint" />
          </mxGeometry>
        </mxCell>
        <mxCell id="b1SfIP7e31Zmd9BF9vlx-69" value="" style="endArrow=classic;html=1;rounded=0;entryX=0.008;entryY=0.383;entryDx=0;entryDy=0;exitX=1;exitY=0.5;exitDx=0;exitDy=0;entryPerimeter=0;fillColor=#f8cecc;strokeColor=#b85450;" edge="1" parent="1" source="b1SfIP7e31Zmd9BF9vlx-55" target="b1SfIP7e31Zmd9BF9vlx-63">
          <mxGeometry width="50" height="50" relative="1" as="geometry">
            <mxPoint x="530" y="1130" as="sourcePoint" />
            <mxPoint x="626" y="1000" as="targetPoint" />
          </mxGeometry>
        </mxCell>
        <mxCell id="b1SfIP7e31Zmd9BF9vlx-70" value="" style="endArrow=classic;html=1;rounded=0;entryX=0;entryY=0;entryDx=0;entryDy=0;exitX=1;exitY=1;exitDx=0;exitDy=0;fillColor=#f8cecc;strokeColor=#b85450;" edge="1" parent="1" source="b1SfIP7e31Zmd9BF9vlx-55" target="b1SfIP7e31Zmd9BF9vlx-61">
          <mxGeometry width="50" height="50" relative="1" as="geometry">
            <mxPoint x="520" y="1037" as="sourcePoint" />
            <mxPoint x="627" y="1010" as="targetPoint" />
          </mxGeometry>
        </mxCell>
        <mxCell id="b1SfIP7e31Zmd9BF9vlx-71" value="" style="endArrow=classic;html=1;rounded=0;fillColor=#dae8fc;strokeColor=#6c8ebf;exitX=0.675;exitY=0;exitDx=0;exitDy=0;exitPerimeter=0;entryX=0;entryY=1;entryDx=0;entryDy=0;" edge="1" parent="1" source="b1SfIP7e31Zmd9BF9vlx-2" target="b1SfIP7e31Zmd9BF9vlx-74">
          <mxGeometry width="50" height="50" relative="1" as="geometry">
            <mxPoint x="570.49" y="16" as="sourcePoint" />
            <mxPoint x="700" as="targetPoint" />
          </mxGeometry>
        </mxCell>
        <mxCell id="b1SfIP7e31Zmd9BF9vlx-72" value="Slowly Changing Dimensions (SCD)" style="rounded=0;whiteSpace=wrap;html=1;fillColor=#dae8fc;strokeColor=#6c8ebf;" vertex="1" parent="1">
          <mxGeometry x="800" y="180" width="120" height="60" as="geometry" />
        </mxCell>
        <mxCell id="b1SfIP7e31Zmd9BF9vlx-73" value="" style="endArrow=classic;html=1;rounded=0;fillColor=#dae8fc;strokeColor=#6c8ebf;exitX=0;exitY=0;exitDx=0;exitDy=0;" edge="1" parent="1" source="b1SfIP7e31Zmd9BF9vlx-74">
          <mxGeometry width="50" height="50" relative="1" as="geometry">
            <mxPoint x="610" y="-284" as="sourcePoint" />
            <mxPoint x="650" y="-210" as="targetPoint" />
          </mxGeometry>
        </mxCell>
        <mxCell id="b1SfIP7e31Zmd9BF9vlx-74" value="Processing Types" style="rounded=0;whiteSpace=wrap;html=1;fillColor=#dae8fc;strokeColor=#6c8ebf;" vertex="1" parent="1">
          <mxGeometry x="707" y="-90" width="120" height="60" as="geometry" />
        </mxCell>
        <mxCell id="b1SfIP7e31Zmd9BF9vlx-75" value="" style="endArrow=classic;html=1;rounded=0;fillColor=#dae8fc;strokeColor=#6c8ebf;" edge="1" parent="1">
          <mxGeometry width="50" height="50" relative="1" as="geometry">
            <mxPoint x="830" y="-90" as="sourcePoint" />
            <mxPoint x="880" y="-210" as="targetPoint" />
          </mxGeometry>
        </mxCell>
        <mxCell id="b1SfIP7e31Zmd9BF9vlx-76" value="Load Methods" style="rounded=0;whiteSpace=wrap;html=1;fillColor=#dae8fc;strokeColor=#6c8ebf;" vertex="1" parent="1">
          <mxGeometry x="850" y="20" width="120" height="60" as="geometry" />
        </mxCell>
        <mxCell id="b1SfIP7e31Zmd9BF9vlx-79" value="" style="endArrow=classic;html=1;rounded=0;fillColor=#dae8fc;strokeColor=#6c8ebf;entryX=0.017;entryY=0.617;entryDx=0;entryDy=0;entryPerimeter=0;" edge="1" parent="1" source="b1SfIP7e31Zmd9BF9vlx-2" target="b1SfIP7e31Zmd9BF9vlx-76">
          <mxGeometry width="50" height="50" relative="1" as="geometry">
            <mxPoint x="730" y="180" as="sourcePoint" />
            <mxPoint x="786" y="60" as="targetPoint" />
          </mxGeometry>
        </mxCell>
        <mxCell id="b1SfIP7e31Zmd9BF9vlx-80" value="" style="endArrow=classic;html=1;rounded=0;fillColor=#dae8fc;strokeColor=#6c8ebf;exitX=1.008;exitY=0.65;exitDx=0;exitDy=0;exitPerimeter=0;entryX=0;entryY=0;entryDx=0;entryDy=0;" edge="1" parent="1" source="b1SfIP7e31Zmd9BF9vlx-2" target="b1SfIP7e31Zmd9BF9vlx-72">
          <mxGeometry width="50" height="50" relative="1" as="geometry">
            <mxPoint x="820" y="204" as="sourcePoint" />
            <mxPoint x="979" y="130" as="targetPoint" />
          </mxGeometry>
        </mxCell>
        <mxCell id="b1SfIP7e31Zmd9BF9vlx-81" value="Batch Processing" style="rounded=0;whiteSpace=wrap;html=1;fillColor=#dae8fc;strokeColor=#6c8ebf;" vertex="1" parent="1">
          <mxGeometry x="587" y="-270" width="120" height="60" as="geometry" />
        </mxCell>
        <mxCell id="b1SfIP7e31Zmd9BF9vlx-82" value="Streaming Processing" style="rounded=0;whiteSpace=wrap;html=1;fillColor=#dae8fc;strokeColor=#6c8ebf;" vertex="1" parent="1">
          <mxGeometry x="810" y="-270" width="120" height="60" as="geometry" />
        </mxCell>
        <mxCell id="b1SfIP7e31Zmd9BF9vlx-83" value="Full load" style="rounded=0;whiteSpace=wrap;html=1;fillColor=#dae8fc;strokeColor=#6c8ebf;" vertex="1" parent="1">
          <mxGeometry x="1050" y="-80" width="120" height="60" as="geometry" />
        </mxCell>
        <mxCell id="b1SfIP7e31Zmd9BF9vlx-84" value="Truncate &amp;amp; Insert" style="rounded=0;whiteSpace=wrap;html=1;fillColor=#dae8fc;strokeColor=#6c8ebf;" vertex="1" parent="1">
          <mxGeometry x="1270" y="-170" width="120" height="60" as="geometry" />
        </mxCell>
        <mxCell id="b1SfIP7e31Zmd9BF9vlx-85" value="Slowly Changing Diemensions (SCD)" style="rounded=0;whiteSpace=wrap;html=1;fillColor=#dae8fc;strokeColor=#6c8ebf;" vertex="1" parent="1">
          <mxGeometry x="1050" y="170" width="120" height="60" as="geometry" />
        </mxCell>
        <mxCell id="b1SfIP7e31Zmd9BF9vlx-86" value="" style="endArrow=classic;html=1;rounded=0;fillColor=#dae8fc;strokeColor=#6c8ebf;entryX=0;entryY=0.5;entryDx=0;entryDy=0;exitX=1;exitY=0;exitDx=0;exitDy=0;" edge="1" parent="1" source="b1SfIP7e31Zmd9BF9vlx-76" target="b1SfIP7e31Zmd9BF9vlx-83">
          <mxGeometry width="50" height="50" relative="1" as="geometry">
            <mxPoint x="880" y="126" as="sourcePoint" />
            <mxPoint x="1048" y="70" as="targetPoint" />
          </mxGeometry>
        </mxCell>
        <mxCell id="b1SfIP7e31Zmd9BF9vlx-87" value="" style="endArrow=classic;html=1;rounded=0;fillColor=#dae8fc;strokeColor=#6c8ebf;entryX=0.008;entryY=0.133;entryDx=0;entryDy=0;exitX=0.95;exitY=1.05;exitDx=0;exitDy=0;entryPerimeter=0;exitPerimeter=0;" edge="1" parent="1" source="b1SfIP7e31Zmd9BF9vlx-76" target="b1SfIP7e31Zmd9BF9vlx-85">
          <mxGeometry width="50" height="50" relative="1" as="geometry">
            <mxPoint x="1050" y="50" as="sourcePoint" />
            <mxPoint x="1130" as="targetPoint" />
          </mxGeometry>
        </mxCell>
        <mxCell id="b1SfIP7e31Zmd9BF9vlx-88" value="Upsert" style="rounded=0;whiteSpace=wrap;html=1;fillColor=#dae8fc;strokeColor=#6c8ebf;" vertex="1" parent="1">
          <mxGeometry x="1270" y="-80" width="120" height="60" as="geometry" />
        </mxCell>
        <mxCell id="b1SfIP7e31Zmd9BF9vlx-89" value="Drop,Create, Insert" style="rounded=0;whiteSpace=wrap;html=1;fillColor=#dae8fc;strokeColor=#6c8ebf;" vertex="1" parent="1">
          <mxGeometry x="1270" y="15" width="120" height="60" as="geometry" />
        </mxCell>
        <mxCell id="b1SfIP7e31Zmd9BF9vlx-90" value="" style="endArrow=classic;html=1;rounded=0;fillColor=#dae8fc;strokeColor=#6c8ebf;entryX=0;entryY=0.5;entryDx=0;entryDy=0;exitX=1;exitY=0;exitDx=0;exitDy=0;" edge="1" parent="1" source="b1SfIP7e31Zmd9BF9vlx-83" target="b1SfIP7e31Zmd9BF9vlx-84">
          <mxGeometry width="50" height="50" relative="1" as="geometry">
            <mxPoint x="1080" y="50" as="sourcePoint" />
            <mxPoint x="1160" y="-20" as="targetPoint" />
          </mxGeometry>
        </mxCell>
        <mxCell id="b1SfIP7e31Zmd9BF9vlx-91" value="" style="endArrow=classic;html=1;rounded=0;fillColor=#dae8fc;strokeColor=#6c8ebf;entryX=0;entryY=0.5;entryDx=0;entryDy=0;" edge="1" parent="1" source="b1SfIP7e31Zmd9BF9vlx-83" target="b1SfIP7e31Zmd9BF9vlx-88">
          <mxGeometry width="50" height="50" relative="1" as="geometry">
            <mxPoint x="1300" y="-10" as="sourcePoint" />
            <mxPoint x="1400" y="-70" as="targetPoint" />
          </mxGeometry>
        </mxCell>
        <mxCell id="b1SfIP7e31Zmd9BF9vlx-92" value="" style="endArrow=classic;html=1;rounded=0;fillColor=#dae8fc;strokeColor=#6c8ebf;exitX=1;exitY=1;exitDx=0;exitDy=0;entryX=0.017;entryY=0.117;entryDx=0;entryDy=0;entryPerimeter=0;" edge="1" parent="1" source="b1SfIP7e31Zmd9BF9vlx-83" target="b1SfIP7e31Zmd9BF9vlx-89">
          <mxGeometry width="50" height="50" relative="1" as="geometry">
            <mxPoint x="1260" y="-30" as="sourcePoint" />
            <mxPoint x="1260" y="10" as="targetPoint" />
          </mxGeometry>
        </mxCell>
        <mxCell id="b1SfIP7e31Zmd9BF9vlx-93" value="SCD O&lt;div&gt;No Historization&lt;/div&gt;" style="rounded=0;whiteSpace=wrap;html=1;fillColor=#dae8fc;strokeColor=#6c8ebf;" vertex="1" parent="1">
          <mxGeometry x="1270" y="100" width="120" height="60" as="geometry" />
        </mxCell>
        <mxCell id="b1SfIP7e31Zmd9BF9vlx-94" value="SCD 1&lt;div&gt;Overwrite&lt;/div&gt;" style="rounded=0;whiteSpace=wrap;html=1;fillColor=#dae8fc;strokeColor=#6c8ebf;" vertex="1" parent="1">
          <mxGeometry x="1270" y="190" width="120" height="60" as="geometry" />
        </mxCell>
        <mxCell id="b1SfIP7e31Zmd9BF9vlx-95" value="SCD 2&lt;div&gt;Historization&lt;/div&gt;" style="rounded=0;whiteSpace=wrap;html=1;fillColor=#dae8fc;strokeColor=#6c8ebf;" vertex="1" parent="1">
          <mxGeometry x="1270" y="295" width="120" height="60" as="geometry" />
        </mxCell>
        <mxCell id="b1SfIP7e31Zmd9BF9vlx-96" value="" style="endArrow=classic;html=1;rounded=0;fillColor=#dae8fc;strokeColor=#6c8ebf;entryX=-0.025;entryY=0.4;entryDx=0;entryDy=0;exitX=1;exitY=0;exitDx=0;exitDy=0;entryPerimeter=0;" edge="1" parent="1" target="b1SfIP7e31Zmd9BF9vlx-93">
          <mxGeometry width="50" height="50" relative="1" as="geometry">
            <mxPoint x="1170" y="170" as="sourcePoint" />
            <mxPoint x="1270" y="110" as="targetPoint" />
          </mxGeometry>
        </mxCell>
        <mxCell id="b1SfIP7e31Zmd9BF9vlx-97" value="" style="endArrow=classic;html=1;rounded=0;fillColor=#dae8fc;strokeColor=#6c8ebf;entryX=0;entryY=0.25;entryDx=0;entryDy=0;" edge="1" parent="1" target="b1SfIP7e31Zmd9BF9vlx-94">
          <mxGeometry width="50" height="50" relative="1" as="geometry">
            <mxPoint x="1170" y="200" as="sourcePoint" />
            <mxPoint x="1270" y="200" as="targetPoint" />
          </mxGeometry>
        </mxCell>
        <mxCell id="b1SfIP7e31Zmd9BF9vlx-98" value="" style="endArrow=classic;html=1;rounded=0;fillColor=#dae8fc;strokeColor=#6c8ebf;exitX=1;exitY=1;exitDx=0;exitDy=0;entryX=0;entryY=0;entryDx=0;entryDy=0;" edge="1" parent="1" target="b1SfIP7e31Zmd9BF9vlx-95">
          <mxGeometry width="50" height="50" relative="1" as="geometry">
            <mxPoint x="1170" y="230" as="sourcePoint" />
            <mxPoint x="1272" y="272" as="targetPoint" />
          </mxGeometry>
        </mxCell>
        <mxCell id="b1SfIP7e31Zmd9BF9vlx-99" value="" style="verticalLabelPosition=bottom;verticalAlign=top;html=1;shape=mxgraph.basic.tick;fillColor=#d5e8d4;strokeColor=#82b366;" vertex="1" parent="1">
          <mxGeometry x="-12.5" y="-320" width="85" height="100" as="geometry" />
        </mxCell>
        <mxCell id="b1SfIP7e31Zmd9BF9vlx-100" value="" style="verticalLabelPosition=bottom;verticalAlign=top;html=1;shape=mxgraph.basic.tick;fillColor=#f8cecc;strokeColor=#b85450;" vertex="1" parent="1">
          <mxGeometry x="380" y="485" width="85" height="100" as="geometry" />
        </mxCell>
        <mxCell id="b1SfIP7e31Zmd9BF9vlx-101" value="" style="verticalLabelPosition=bottom;verticalAlign=top;html=1;shape=mxgraph.basic.tick;fillColor=#d5e8d4;strokeColor=#82b366;" vertex="1" parent="1">
          <mxGeometry x="-292.5" y="-290" width="85" height="100" as="geometry" />
        </mxCell>
        <mxCell id="b1SfIP7e31Zmd9BF9vlx-103" value="" style="verticalLabelPosition=bottom;verticalAlign=top;html=1;shape=mxgraph.basic.tick;fillColor=#d5e8d4;strokeColor=#82b366;" vertex="1" parent="1">
          <mxGeometry x="-456" y="260" width="85" height="100" as="geometry" />
        </mxCell>
        <mxCell id="b1SfIP7e31Zmd9BF9vlx-104" value="" style="verticalLabelPosition=bottom;verticalAlign=top;html=1;shape=mxgraph.basic.tick;fillColor=#dae8fc;strokeColor=#6c8ebf;" vertex="1" parent="1">
          <mxGeometry x="622" y="-370" width="85" height="100" as="geometry" />
        </mxCell>
        <mxCell id="b1SfIP7e31Zmd9BF9vlx-105" value="" style="verticalLabelPosition=bottom;verticalAlign=top;html=1;shape=mxgraph.basic.tick;fillColor=#dae8fc;strokeColor=#6c8ebf;" vertex="1" parent="1">
          <mxGeometry x="1390" y="-250" width="85" height="100" as="geometry" />
        </mxCell>
        <mxCell id="b1SfIP7e31Zmd9BF9vlx-106" value="" style="verticalLabelPosition=bottom;verticalAlign=top;html=1;shape=mxgraph.basic.tick;fillColor=#dae8fc;strokeColor=#6c8ebf;" vertex="1" parent="1">
          <mxGeometry x="1390" y="150" width="85" height="100" as="geometry" />
        </mxCell>
        <mxCell id="b1SfIP7e31Zmd9BF9vlx-107" value="" style="verticalLabelPosition=bottom;verticalAlign=top;html=1;shape=mxgraph.basic.tick;fillColor=#dae8fc;strokeColor=#6c8ebf;" vertex="1" parent="1">
          <mxGeometry x="1080" y="-180" width="85" height="100" as="geometry" />
        </mxCell>
      </root>
    </mxGraphModel>
  </diagram>
</mxfile>
